<svg width="126" height="126" viewBox="0 0 126 126" fill="none" xmlns="http://www.w3.org/2000/svg">
<path fill-rule="evenodd" clip-rule="evenodd" d="M63 126C97.7939 126 126 97.7939 126 63C126 28.2061 97.7939 0 63 0C48.026 0 34.2722 5.22406 23.4617 13.9491C28.7555 18.7572 42.6391 31.5558 52.1671 42.0522C58.9783 49.5556 70.9574 65.5363 80.0316 77.9368L93.1582 62.4576L91.3179 80.9106C91.3179 80.9106 91.5064 89.5687 92.6582 94.9576C93.0055 96.5827 93.6916 99.0855 93.6916 99.0855C93.6916 99.0855 91.2724 97.7097 89.6582 96.9576C86.4659 95.4701 84.2224 94.8832 81.2978 94.1181C80.5282 93.9168 79.7115 93.7032 78.8179 93.4576C70.9608 91.2977 58.3179 89.5672 58.3179 89.5672L76.2488 80.9518C71.7335 76.2094 67.8562 72.2261 64.3737 68.6483L64.3723 68.6469C49.2122 53.072 41.532 45.1817 21.2534 15.8162C8.21765 27.3584 0 44.2195 0 63C0 97.7939 28.2061 126 63 126Z" fill="url(#paint0_angular_2_3)"/>
<defs>
<radialGradient id="paint0_angular_2_3" cx="0" cy="0" r="1" gradientUnits="userSpaceOnUse" gradientTransform="translate(63 63) rotate(90) scale(63 63)">
<stop offset="0.390912" stop-color="#3C41AB"/>
<stop offset="1" stop-color="#7176EB"/>
</radialGradient>
</defs>
</svg>
